<?xml version="1.0" encoding="UTF-8" standalone="no"?>
<!-- Created with Inkscape (http://www.inkscape.org/) -->

<svg
   xmlns:dc="http://purl.org/dc/elements/1.1/"
   xmlns:cc="http://creativecommons.org/ns#"
   xmlns:rdf="http://www.w3.org/1999/02/22-rdf-syntax-ns#"
   xmlns:svg="http://www.w3.org/2000/svg"
   xmlns="http://www.w3.org/2000/svg"
   xmlns:sodipodi="http://sodipodi.sourceforge.net/DTD/sodipodi-0.dtd"
   xmlns:inkscape="http://www.inkscape.org/namespaces/inkscape"
   width="1525"
   height="308"
   viewBox="0 0 403.48946 81.491651"
   version="1.1"
   id="svg8"
   inkscape:version="0.92.3 (2405546, 2018-03-11)"
   sodipodi:docname="logo_withmargin.svg">
  <defs
     id="defs2" />
  <sodipodi:namedview
     id="base"
     pagecolor="#000000"
     bordercolor="#666666"
     borderopacity="1.0"
     inkscape:pageopacity="0"
     inkscape:pageshadow="2"
     inkscape:zoom="0.35"
     inkscape:cx="770.66671"
     inkscape:cy="387.72671"
     inkscape:document-units="mm"
     inkscape:current-layer="layer1"
     showgrid="false"
     inkscape:window-width="1853"
     inkscape:window-height="1025"
     inkscape:window-x="67"
     inkscape:window-y="27"
     inkscape:window-maximized="1"
     fit-margin-top="0"
     fit-margin-left="0"
     fit-margin-right="0"
     fit-margin-bottom="0"
     units="px" />
  <metadata
     id="metadata5">
    <rdf:RDF>
      <cc:Work
         rdf:about="">
        <dc:format>image/svg+xml</dc:format>
        <dc:type
           rdf:resource="http://purl.org/dc/dcmitype/StillImage" />
        <dc:title></dc:title>
      </cc:Work>
    </rdf:RDF>
  </metadata>
  <g
     inkscape:label="Layer 1"
     inkscape:groupmode="layer"
     id="layer1"
     transform="translate(84.465081,-18.737349)">
    <path
       style="fill:#ffffff;stroke-width:0.35277778"
       d="m 258.1695,94.322938 c -3.93719,-1.24844 -6.87119,-3.744559 -8.53799,-7.263769 -0.54285,-1.14616 -1.09965,-2.09191 -1.23732,-2.10165 -0.46927,-0.0332 -1.98425,1.8507 -3.30658,4.11179 -0.72591,1.24124 -1.61518,2.41488 -1.97616,2.60806 -0.36098,0.19319 -1.64496,0.30408 -2.8533,0.24643 l -2.19698,-0.10482 -0.10442,-1.41625 c -0.0731,-0.99166 0.16485,-1.92267 0.79375,-3.10547 1.10406,-2.07646 1.12336,-2.33477 0.10442,-1.39765 -1.77069,1.62849 -3.20288,2.21253 -5.42898,2.21388 -2.79406,0.002 -3.59501,-0.60561 -3.95294,-2.99729 l -0.26397,-1.76389 -0.71663,2.11667 c -0.70984,2.09662 -0.7305,2.11769 -2.18138,2.22479 -1.44942,0.107 -3.94846,-0.76343 -3.94846,-1.37527 0,-0.16765 -0.74546,0.16794 -1.65657,0.74575 -1.37842,0.87417 -2.02342,1.05056 -3.84147,1.05056 -1.58791,0 -2.40174,-0.17558 -2.97847,-0.64258 -0.76764,-0.6216 -0.83473,-0.6216 -2.05395,0 -2.45282,1.25052 -5.89077,0.53951 -6.90861,-1.42877 -0.35743,-0.69119 -0.5526,-2.00258 -0.5526,-3.71298 0,-2.38659 0.13485,-2.90497 1.38337,-5.31766 l 1.38336,-2.67328 -1.82434,0.20012 c -7.87519,0.86386 -7.04514,0.50276 -9.08173,3.95079 -2.36798,4.00906 -5.02791,9.37804 -5.77546,11.65755 -0.79264,2.416989 -1.32504,2.905699 -3.16544,2.905699 -2.23419,0 -2.85217,-0.849699 -2.84993,-3.918579 0.002,-2.39414 -0.0125,-2.43142 -0.93106,-2.43142 -0.51306,0 -1.3076,-0.30347 -1.76566,-0.67439 -1.49262,-1.20865 -1.03919,-5.57007 0.87478,-8.41421 l 1.15257,-1.7127 -0.80123,-0.60437 c -1.86892,-1.40972 -1.92081,-5.62463 -0.11443,-9.29391 3.13047,-6.35889 10.93815,-9.71554 27.33603,-11.75221 3.29848,-0.40968 6.98409,-1.00678 8.19026,-1.32689 1.20617,-0.3201 2.31742,-0.45685 2.46945,-0.30389 0.63777,0.64174 0.21585,4.66198 -0.699,6.66028 -1.05554,2.3056 -0.71885,2.17712 -7.13848,2.72402 -7.61678,0.64889 -7.58473,0.64154 -7.58473,1.73827 0,0.52183 -0.50813,1.63974 -1.12919,2.48424 l -1.12918,1.53546 1.92293,-0.29768 c 1.05762,-0.16373 2.63732,-0.30747 3.51044,-0.31943 1.54636,-0.0212 1.59042,0.009 1.70019,1.1535 0.062,0.6464 -0.0544,1.65466 -0.25868,2.24058 l -0.37138,1.06533 1.45107,-1.31096 c 0.79809,-0.72102 2.31577,-1.70682 3.37262,-2.19066 1.60653,-0.7355 2.32221,-0.85707 4.3657,-0.74161 1.95115,0.11025 2.60389,0.29836 3.23607,0.93255 0.72356,0.72587 0.79034,1.11677 0.77373,4.52862 l -0.0182,3.73417 0.737,-0.92428 c 0.40534,-0.50835 1.00739,-0.92427 1.33788,-0.92427 0.40793,0 1.16941,-1.1329 2.37122,-3.52778 l 1.77032,-3.52778 h 1.5452 c 0.99249,0 1.8413,0.23977 2.37299,0.6703 0.81328,0.65856 0.85083,0.65856 2.1417,0 0.817,-0.4168 2.04393,-0.6703 3.24421,-0.6703 1.75031,0 2.00195,0.10061 2.69854,1.07888 0.65437,0.91897 0.74772,1.44181 0.62985,3.52777 l -0.13836,2.44891 h 1.10338 c 1.14432,0 2.10722,0.77358 2.32285,1.86613 0.0817,0.41374 0.9485,-0.69621 2.51459,-3.2198 3.96432,-6.3881 7.86497,-14.3624 8.52678,-17.43175 0.19398,-0.89964 0.3362,-0.97014 1.95692,-0.97014 2.27639,0 4.88216,1.2279 5.18752,2.44445 0.34601,1.37862 -0.4676,4.51759 -1.99825,7.70944 -0.77067,1.60707 -1.1822,2.79769 -0.91452,2.64583 0.26769,-0.15186 2.10385,-1.69653 4.0804,-3.43259 4.30685,-3.78291 8.55295,-8.27766 9.76534,-10.33727 0.8272,-1.4052 0.98062,-1.4993 2.44433,-1.4993 1.4763,0 1.61925,0.0907 2.61232,1.65656 0.57781,0.91111 1.05057,2.10174 1.05057,2.64584 0,0.83017 0.1475,0.98926 0.91722,0.98926 0.57274,0 1.36769,0.45047 2.11667,1.19945 1.69817,1.69815 1.69005,3.80476 -0.0254,6.64986 l -1.22319,2.02847 h 1.76929 c 2.06312,0 3.36578,0.9991 3.73959,2.86815 l 0.22447,1.1223 1.00891,-1.99522 1.00891,-1.99523 h 1.78537 c 1.48527,0 1.95146,0.16612 2.77372,0.98837 1.13806,1.13806 1.64528,3.32993 1.10154,4.7601 -0.28472,0.74888 -0.25897,0.95431 0.1196,0.95431 0.51085,0 7.30909,-11.17814 8.86453,-14.57564 l 0.91785,-2.00492 h 1.77331 c 1.54633,0 1.92684,0.15353 2.97275,1.19945 1.69817,1.69815 1.69006,3.80476 -0.0254,6.64986 l -1.22318,2.02847 h 1.25938 c 0.9707,0 1.54449,0.28516 2.50356,1.24422 l 1.24424,1.24422 -0.1622,2.80197 c -0.22624,3.90769 -1.90377,7.27767 -5.35295,10.75349 -3.55716,3.58464 -5.09178,4.25399 -9.60921,4.19123 -3.46064,-0.0481 -6.13187,-0.73216 -6.13187,-1.57033 0,-0.16765 -0.74546,0.16794 -1.65658,0.74575 -1.39841,0.88686 -2.01252,1.05056 -3.94095,1.05056 -1.6154,0 -2.47029,-0.1682 -2.91906,-0.57434 -0.58631,-0.53061 -0.72683,-0.53061 -1.84499,0 -1.45415,0.69005 -5.31089,0.77776 -5.86433,0.13337 -0.20828,-0.24254 -0.57175,-0.72067 -0.80765,-1.06252 -0.40171,-0.58207 -0.51156,-0.56267 -1.73013,0.30547 -0.75558,0.53829 -1.97601,1.00307 -2.91042,1.1084 -1.59064,0.17928 -1.60923,0.1966 -1.60923,1.4981 0,0.92526 -0.30765,1.70387 -1.03484,2.6189 -1.93262,2.431896 -2.46369,2.677936 -5.72357,2.651796 -1.61864,-0.013 -3.57798,-0.22495 -4.35409,-0.471047 z m 8.36637,-2.226119 c 1.03886,-1.02325 1.6878,-1.97271 1.6878,-2.46944 0,-0.73021 -0.1633,-0.80701 -1.71574,-0.80701 -5.31488,0 -9.99658,-2.2929 -12.50808,-6.12594 -1.07972,-1.64786 -0.80119,-2.08527 2.84673,-4.47049 1.89178,-1.23694 4.39209,-2.99046 5.55625,-3.8967 1.16417,-0.90624 2.75167,-2.07342 3.52778,-2.59374 2.29327,-1.53744 4.37427,-3.34115 8.06475,-6.99022 1.91325,-1.89177 3.55113,-3.43958 3.63975,-3.43958 0.46256,0 -0.70429,2.23118 -4.34922,8.31654 -2.21679,3.70096 -4.50635,7.89833 -5.08794,9.32748 -1.23162,3.0264 -1.67936,6.19472 -1.04341,7.38302 0.39088,0.73036 0.62826,0.79062 2.6017,0.66037 1.82143,-0.12021 2.47763,-0.35964 4.06954,-1.48487 1.48413,-1.04904 1.9637,-1.23782 2.19946,-0.8658 0.16584,0.26167 0.30396,0.62201 0.30692,0.80076 0.004,0.17875 0.26811,0.61531 0.58924,0.97014 0.91567,1.01182 3.80136,0.88211 5.26835,-0.23681 0.63595,-0.48507 1.30013,-0.88194 1.47599,-0.88194 0.17582,0 0.50052,0.39687 0.7215,0.88194 0.36135,0.79304 0.60794,0.88195 2.44595,0.88195 1.74431,0 2.31937,-0.18132 3.92141,-1.23638 l 1.87734,-1.23638 0.95514,1.0225 c 0.86018,0.92081 1.25688,1.04764 3.9889,1.27521 2.1004,0.17496 3.4514,0.11711 4.39141,-0.18807 1.7755,-0.57642 4.84036,-2.60857 5.84994,-3.87877 3.33283,-4.19328 4.52335,-6.63428 4.77703,-9.79464 0.16683,-2.07842 0.11279,-2.2941 -0.81897,-3.26663 -0.70178,-0.73252 -1.33562,-1.04129 -2.13748,-1.04129 -1.32556,0 -2.25591,-0.30069 -2.25591,-0.72911 0,-0.16547 0.63348,-1.29943 1.40776,-2.5199 1.75567,-2.76743 1.87004,-4.29639 0.42503,-5.68082 -0.63906,-0.61224 -1.37686,-0.94794 -2.08344,-0.94794 -0.99645,0 -1.18614,0.19653 -2.12799,2.20486 -0.56871,1.21267 -2.58244,4.79866 -4.47495,7.96886 -2.89112,4.84296 -3.63312,5.84431 -4.64368,6.26654 -0.6615,0.2764 -1.20273,0.64414 -1.20273,0.8172 0,0.26429 -0.88413,1.45438 -2.83863,3.82101 -0.42672,0.51667 -1.04192,0.58396 -1.04192,0.11396 0,-0.58168 2.44386,-5.46524 3.21888,-6.43226 1.50562,-1.87865 0.058,-4.8824 -2.3531,-4.8824 -1.22752,0 -1.27691,0.0566 -2.64565,3.03333 -1.56066,3.39411 -3.81089,7.19723 -4.25846,7.19723 -0.16146,0 -0.53985,0.47625 -0.84084,1.05833 -0.57009,1.10243 -1.23472,1.41098 -1.23472,0.57321 0,-0.82174 2.39419,-5.78963 3.15863,-6.55406 0.97635,-0.97636 0.96449,-3.14061 -0.024,-4.3974 -1.00108,-1.27269 -3.06624,-1.19067 -3.71874,0.1477 -0.23646,0.48507 -0.89348,1.83444 -1.45997,2.99861 -0.72605,1.49202 -1.37121,2.29258 -2.18627,2.71278 -0.63592,0.32787 -1.78198,1.51849 -2.54674,2.64583 -1.39065,2.04992 -2.1324,2.72828 -2.75071,2.51566 -0.44708,-0.15373 0.6918,-2.12373 8.1213,-14.04788 2.47092,-3.96582 2.69233,-5.30937 1.12271,-6.81317 -0.54419,-0.52137 -1.23398,-0.94794 -1.53282,-0.94794 -0.76916,0 -1.59124,-1.04036 -1.87413,-2.37171 -0.30847,-1.45178 -2.04241,-3.3519 -2.79516,-3.06304 -0.3054,0.1172 -0.89821,0.76796 -1.31735,1.44615 -0.41917,0.67819 -1.09706,1.59755 -1.50646,2.04303 -1.6123,1.7544 -7.05933,7.13751 -8.5725,8.47195 -0.88004,0.77612 -2.13057,1.88737 -2.77894,2.46945 -0.64836,0.58208 -1.60179,1.37583 -2.11875,1.76389 -0.51695,0.38805 -1.23856,0.98337 -1.60357,1.32291 -0.64085,0.59614 -1.72199,0.84661 -1.72199,0.39893 0,-0.12014 0.56188,-1.1434 1.24863,-2.27391 3.18376,-5.24102 4.98061,-10.31267 4.05069,-11.43314 -0.69467,-0.83691 -2.48679,-1.59674 -3.76613,-1.59674 -0.92709,0 -1.18052,0.14476 -1.18052,0.6743 0,1.50878 -5.06148,11.99771 -7.98585,16.54908 -4.36244,6.78955 -5.84579,8.76501 -7.27179,9.68421 -0.71852,0.46315 -0.97014,0.91175 -0.97014,1.72958 0,0.60732 -0.4863,2.13349 -1.08067,3.39147 -0.66103,1.39907 -0.95412,2.4138 -0.75477,2.61314 0.17924,0.17925 1.10098,0.27661 2.04831,0.21637 1.70241,-0.10826 1.7391,-0.13616 3.15941,-2.40259 1.58931,-2.53611 3.81319,-4.93889 4.57116,-4.93889 0.26962,0 0.82016,0.74591 1.22344,1.65757 0.99785,2.25582 3.40447,5.30284 5.04668,6.3896 2.09922,1.389199 4.74733,2.159109 7.47017,2.171869 l 2.45731,0.0115 1.68783,-1.662439 z m -6.60248,0.462229 c -3.98248,-1.262789 -6.98252,-3.813519 -8.66287,-7.365459 -0.57088,-1.20673 -1.03809,-2.39249 -1.03824,-2.63503 -3.5e-4,-0.67845 -1.69919,-0.52328 -3.12725,0.28565 -1.21819,0.69005 -4.28136,4.63512 -4.28136,5.51398 0,0.51618 -1.69568,1.87329 -2.34063,1.87329 -0.691,0 -0.60024,-0.43226 0.40035,-1.90672 0.56532,-0.83305 0.88194,-1.79025 0.88194,-2.66629 0,-1.19098 0.16482,-1.46853 1.28203,-2.15901 2.7257,-1.68457 11.78048,-17.10753 14.4185,-24.55893 l 0.77418,-2.18679 1.46404,0.72435 c 0.80522,0.39839 1.46403,0.92592 1.46403,1.17229 0,1.50921 -3.0091,7.72527 -5.85853,12.10226 -2.02792,3.1151 -2.4227,4.66217 -1.18969,4.66217 1.80244,0 18.834,-15.24509 21.40367,-19.15857 l 1.11365,-1.69607 0.8933,1.31461 c 0.87009,1.28048 0.87768,1.34283 0.29115,2.40162 -0.33119,0.59786 -2.66591,3.16067 -5.18827,5.69513 -4.69572,4.71825 -10.29215,9.17068 -16.91388,13.45644 -3.39567,2.19777 -3.70367,2.48847 -3.71321,3.50457 -0.0138,1.46521 1.86323,4.17276 4.0398,5.82741 2.10588,1.6009 4.74828,2.45492 8.448,2.73036 l 2.84762,0.212 -1.66641,1.6757 c -1.84217,1.852439 -2.92326,2.074809 -5.74192,1.181039 z m 8.56738,-6.825489 c -0.85146,-0.9774 -0.9133,-1.55668 -0.36727,-3.43958 0.71635,-2.47017 2.85386,-6.61325 5.98939,-11.60898 1.47263,-2.34631 3.41266,-5.69477 4.31115,-7.44102 0.89849,-1.74625 1.77074,-3.23951 1.93831,-3.31836 0.44933,-0.21139 1.96282,1.35812 1.95996,2.03247 0,0.31918 -1.83935,3.51721 -4.08443,7.10672 -4.80631,7.68445 -6.84921,11.57534 -6.84921,13.04495 0,0.922 0.12823,1.06616 0.94851,1.06616 0.72196,0 1.49377,-0.59031 3.23187,-2.47186 1.25585,-1.35952 2.46017,-2.82796 2.67628,-3.26319 0.21611,-0.43524 0.75716,-0.84351 1.2023,-0.90727 0.64068,-0.0918 1.13344,-0.81419 2.36463,-3.46694 1.70829,-3.68056 2.24963,-4.0041 3.40103,-2.03262 0.63334,1.08441 0.63313,1.08558 -0.42185,2.26724 -0.58057,0.65025 -1.05555,1.37584 -1.05555,1.61242 0,0.23658 -0.71173,1.7558 -1.58161,3.37605 -0.86988,1.62024 -1.58425,3.38246 -1.5875,3.91603 -0.005,0.83378 0.13607,0.97014 1.00401,0.97014 0.79396,0 1.49168,-0.51703 3.26319,-2.41811 1.74181,-1.86922 2.76229,-3.4486 4.49559,-6.95787 l 2.24225,-4.53976 1.02094,1.1426 c 1.24506,1.39348 1.25716,1.63286 0.13896,2.75105 -0.48507,0.48507 -0.88194,1.08353 -0.88194,1.32991 0,0.24638 -0.71438,1.8132 -1.5875,3.48181 -1.82601,3.48967 -2.07472,5.21037 -0.75315,5.21037 1.17923,0 2.33416,-1.01679 4.64993,-4.0937 1.10832,-1.47265 2.43124,-2.83219 2.93973,-3.0212 0.67921,-0.25244 1.7555,-1.74295 4.05508,-5.61563 1.72177,-2.8996 3.73112,-6.46756 4.46521,-7.92883 0.7341,-1.46125 1.43726,-2.68913 1.5626,-2.72859 0.39617,-0.12478 1.95421,1.56634 1.95421,2.12112 0,0.29224 -0.79375,1.84544 -1.76389,3.45155 -0.97014,1.60612 -1.76389,3.27555 -1.76389,3.70985 0,0.74038 0.11554,0.77836 1.85209,0.60868 2.25544,-0.22037 3.51899,0.34347 4.14238,1.84844 1.3317,3.21499 -4.55037,11.6298 -9.81378,14.03947 -1.56185,0.71503 -2.04361,0.79756 -2.75735,0.47235 -0.47568,-0.21674 -1.4527,-0.39911 -2.1712,-0.40528 -1.71905,-0.0148 -2.54103,-0.67987 -2.54103,-2.05615 0,-0.9783 -0.1155,-1.10763 -0.98912,-1.10763 -0.67394,0 -1.37653,0.4033 -2.20486,1.26563 -1.23412,1.28476 -3.43263,2.61492 -4.32202,2.61492 -0.6502,0 -1.65622,-1.14185 -1.65622,-1.87986 0,-0.94602 -1.65051,-0.71447 -3.29371,0.46208 -0.80782,0.57842 -1.97174,1.15129 -2.58642,1.27305 -0.98937,0.19597 -1.18174,0.0975 -1.6757,-0.85776 -0.30695,-0.59352 -0.55806,-1.56327 -0.55806,-2.15499 0,-0.88918 -0.14157,-1.07585 -0.81594,-1.07585 -0.45882,0 -1.26943,0.48398 -1.85208,1.10575 -1.2694,1.35467 -3.96466,3.12758 -4.7547,3.12758 -0.32001,0 -0.82381,-0.27781 -1.11962,-0.61736 z m 33.56685,-3.07506 c 1.44991,-0.74978 4.68513,-4.45585 5.78171,-6.62316 0.51907,-1.02596 0.94378,-2.40061 0.94378,-3.05479 v -1.18942 l -1.58863,0.21775 c -0.87376,0.11976 -2.19427,0.52671 -2.93447,0.90435 -2.86907,1.46368 -5.70745,5.77215 -5.70745,8.66347 0,1.59676 0.004,1.59922 1.25225,1.59922 0.68873,0 1.70251,-0.23284 2.25281,-0.51742 z m -2.57878,-1.08176 c -0.11535,-0.30056 0.44398,-1.70579 1.25889,-3.16285 1.19758,-2.14129 1.82662,-2.85059 3.43112,-3.86887 3.33096,-2.11398 4.13381,-1.42062 2.05662,1.77611 -1.27388,1.96044 -5.2741,5.79646 -6.0446,5.79646 -0.27199,0 -0.5879,-0.24339 -0.70203,-0.54085 z m 5.46196,-5.38596 c 0.63397,-0.88281 0.92442,-1.46949 0.6454,-1.30373 -1.68268,0.99972 -2.80384,2.15584 -3.67485,3.78943 l -0.9883,1.85361 1.43252,-1.3671 c 0.78786,-0.75191 1.95122,-2.0894 2.58523,-2.97221 z M 189.016,90.954549 c 0.29602,-0.57245 0.53822,-1.26333 0.53822,-1.5353 0,-0.64031 3.38268,-7.52969 5.49618,-11.19388 0.90396,-1.5672 2.02854,-3.1017 2.49907,-3.41 0.51132,-0.33503 2.58071,-0.75914 5.14364,-1.05417 2.35848,-0.27149 4.51626,-0.68293 4.79505,-0.91431 0.62796,-0.52116 1.82162,-3.24979 1.82162,-4.16411 0,-0.76663 -0.83486,-0.86974 -2.82222,-0.34857 -0.6791,0.17809 -2.06816,0.43022 -3.08681,0.5603 -1.69123,0.21597 -1.85208,0.17574 -1.85208,-0.4632 0,-0.38483 0.55289,-1.31254 1.22864,-2.06157 1.22657,-1.35958 1.34256,-1.58428 1.738,-3.36683 0.12346,-0.55655 0.53675,-1.05289 1.00293,-1.20448 0.43611,-0.14182 3.48671,-0.50974 6.77912,-0.81761 l 5.9862,-0.55977 0.76473,-1.36332 c 0.83981,-1.49716 1.41479,-4.73351 0.92753,-5.22076 -0.17554,-0.17554 -0.91484,-0.094 -1.71875,0.18968 -0.77589,0.27375 -2.908,0.67858 -4.73803,0.89962 -13.86416,1.67459 -19.90139,3.20916 -24.59279,6.25108 -2.89039,1.87415 -3.52029,2.51069 -4.86983,4.92111 -2.06049,3.68026 -1.96117,7.66642 0.2191,8.79389 1.28535,0.66468 1.31554,1.20563 0.12909,2.31305 -1.26811,1.18365 -2.12056,3.0028 -2.38805,5.09619 -0.30335,2.37397 0.3076,3.26473 2.34019,3.41198 1.11207,0.0806 1.46259,0.24328 1.373,0.63735 -0.0662,0.29104 -0.20476,1.33656 -0.30797,2.32338 -0.25103,2.40018 0.25994,3.32107 1.84274,3.32107 0.98672,0 1.31375,-0.19434 1.75148,-1.04082 z m -2.21344,-0.44085 c -0.931,-0.93099 -0.12557,-4.03218 2.43083,-9.35956 0.95257,-1.98511 1.73194,-3.85042 1.73194,-4.14514 0,-0.96446 -2.05917,-0.64067 -3.57855,0.56269 -1.773,1.40424 -2.77145,3.36347 -2.77145,5.43832 0,1.48454 -0.0691,1.61628 -0.79375,1.51336 -1.77949,-0.25273 -0.59551,-4.41027 2.05685,-7.2226 1.50209,-1.59267 1.59171,-2.77216 0.23621,-3.10859 -2.68222,-0.66571 -3.21636,-2.85185 -1.5549,-6.36383 2.71618,-5.7414 10.5233,-9.53731 23.16254,-11.26188 9.55624,-1.30391 11.29522,-1.51681 11.42801,-1.39908 0.25085,0.22241 -1.10162,3.39464 -1.7042,3.99722 -0.44145,0.44145 -1.81952,0.69941 -5.50904,1.03121 -9.29986,0.83633 -8.62449,0.67584 -8.62449,2.04955 0,0.90362 -0.47593,1.82963 -1.94028,3.77519 -2.16023,2.87013 -2.47702,4.10258 -1.05453,4.10258 0.48715,0 2.41126,-0.24548 4.27578,-0.54551 1.86452,-0.30003 3.46842,-0.46713 3.56422,-0.37133 0.14872,0.14871 -0.3374,1.04621 -1.58751,2.93095 -0.16442,0.24789 -1.89838,0.57966 -4.13916,0.79198 -6.22836,0.59014 -6.01109,0.50381 -7.46707,2.9671 -2.28459,3.86517 -5.3034,9.86522 -6.28061,12.48306 -0.9874,2.64511 -1.16664,2.84851 -1.88084,2.13431 z m 5.21715,-17.53911 c 2.06417,-0.9762 2.28478,-1.20746 4.29063,-4.49792 1.16301,-1.90784 2.34117,-3.71943 2.61812,-4.02575 0.27695,-0.30632 0.50354,-0.98101 0.50354,-1.4993 0,-1.19417 -0.89649,-1.24072 -3.97988,-0.20666 -3.30421,1.10811 -6.09048,2.71577 -7.66252,4.42124 -1.17974,1.27986 -1.41038,1.77297 -1.41038,3.01543 0,1.96822 1.22215,3.81631 2.52597,3.81966 0.51615,0.001 1.91769,-0.46069 3.11452,-1.0267 z m -4.04393,-1.07004 c -1.03817,-2.00759 -0.51734,-3.24517 2.1307,-5.06296 3.31245,-2.27387 6.93295,-3.80028 7.36309,-3.10428 0.10862,0.17574 -0.73405,1.80351 -1.8726,3.61726 -1.79363,2.85734 -2.34038,3.45086 -4.09403,4.44427 -1.11318,0.63059 -2.24107,1.14653 -2.50644,1.14653 -0.26537,0 -0.72469,-0.46837 -1.02072,-1.04082 z m 3.00864,-1.04511 c 1.20656,-0.54019 1.81137,-1.17358 3.03177,-3.175 0.83848,-1.3751 1.44228,-2.50018 1.34177,-2.50018 -0.39724,0 -3.57803,1.75859 -4.69769,2.59726 -1.60118,1.19934 -2.25555,2.20418 -1.98682,3.05088 0.27493,0.86622 0.43249,0.86806 2.31097,0.027 z m -5.07557,12.78685 c -0.58971,-0.58971 -0.16769,-2.28657 0.8597,-3.4567 1.92391,-2.19122 2.30517,-1.36642 0.81978,1.77346 -0.88134,1.86299 -1.19019,2.17253 -1.67948,1.68324 z m 80.30046,3.0149 c -1.36236,-2.73089 0.22546,-7.82141 4.83369,-15.49679 l 2.73043,-4.54771 -2.5103,2.22322 c -3.12794,2.77024 -8.44994,6.7764 -13.18182,9.92266 -1.98879,1.32236 -3.61598,2.52166 -3.61598,2.66511 0,0.14345 0.7219,1.06375 1.60422,2.0451 2.29669,2.55447 5.82408,4.12129 9.56946,4.2506 l 1.11947,0.0387 z m -54.50975,-0.31159 c 1.44937,-0.88368 1.92479,-0.88345 2.7255,0.001 1.09817,1.21348 3.83872,0.97603 6.12676,-0.53082 l 1.87735,-1.23637 1.01085,1.08212 c 0.82673,0.88501 1.24167,1.06204 2.27787,0.9718 1.21585,-0.10588 1.29949,-0.20291 2.07193,-2.40339 1.03758,-2.9558 2.06913,-4.94377 3.00403,-5.78928 1.11635,-1.0096 1.2799,-0.4388 0.43621,1.52241 -0.90572,2.1054 -1.00484,5.16232 -0.20445,6.30504 0.73863,1.05453 3.31577,1.07619 5.27689,0.0443 1.49185,-0.78503 4.4045,-3.41349 4.4045,-3.97484 0,-0.18382 0.36908,-0.82545 0.82017,-1.42585 1.3899,-1.84993 2.4621,-4.00742 2.25709,-4.54168 -0.10743,-0.27995 -0.53804,-0.59862 -0.95692,-0.70816 -0.81306,-0.21262 -1.33211,0.18896 -2.82589,2.18631 -1.2642,1.69038 -2.06463,2.50106 -2.46945,2.50106 -0.64777,0 -0.36576,-0.77553 1.41111,-3.88056 1.92213,-3.35885 2.28582,-5.44784 1.21472,-6.97705 -0.71296,-1.0179 -2.83237,-1.05298 -4.7425,-0.0785 -1.71376,0.8743 -2.06166,0.87787 -2.97587,0.0306 -0.70469,-0.65311 -1.31096,-0.86517 -2.22406,-0.77792 -0.24058,0.023 -1.1521,1.4648 -2.0256,3.20402 -0.96202,1.9155 -1.92184,3.34112 -2.43452,3.61597 -0.4655,0.24957 -1.58676,1.36656 -2.4917,2.48222 -0.90494,1.11566 -1.79537,2.02847 -1.97874,2.02847 -0.41721,0 -0.44021,-0.95067 -0.0291,-1.20473 0.16735,-0.10343 0.41633,-2.00793 0.55331,-4.23225 0.3439,-5.58462 0.004,-6.19028 -3.47487,-6.19928 -1.6764,-0.004 -2.45942,0.20413 -3.97102,1.05723 -2.56046,1.44503 -5.89433,4.94671 -7.55304,7.9332 -1.22666,2.20862 -1.37202,2.7313 -1.37619,4.94859 -0.005,2.66032 0.50217,3.84488 1.88516,4.40299 1.30586,0.52698 3.18126,0.37411 4.38051,-0.35706 z m 3.83141,-0.72984 c -0.51124,-0.40214 -0.92952,-0.95776 -0.92952,-1.23472 0,-0.857 -1.6804,-0.56847 -3.23099,0.55477 -1.75149,1.26877 -3.07614,1.34857 -4.11043,0.24763 -1.1255,-1.19805 -1.32362,-2.7968 -0.58891,-4.75213 1.9992,-5.32053 8.12033,-11.15557 11.70514,-11.15805 2.20048,-0.001 3.64797,2.69309 2.43835,4.5392 -0.6641,1.01353 -0.73115,2.00036 -0.1738,2.55772 0.29138,0.29138 0.1064,0.89922 -0.70555,2.31836 -2.35848,4.12219 -0.8953,6.05174 2.12908,2.80769 0.85923,-0.92163 2.0792,-2.42976 2.71106,-3.35139 0.72024,-1.05056 1.4101,-1.6757 1.84917,-1.6757 0.53314,0 1.07567,-0.77116 2.27251,-3.23019 0.86469,-1.77661 1.63957,-3.2976 1.72194,-3.37998 0.30297,-0.30296 1.58036,0.63373 1.79758,1.31813 0.2762,0.8702 1.98995,0.96721 2.66736,0.15098 0.25331,-0.30522 1.0816,-0.87178 1.84065,-1.25902 1.30188,-0.66417 1.41765,-0.67007 2.04307,-0.10408 1.31052,1.18601 1.18068,1.78133 -1.4076,6.45348 -2.71945,4.90894 -3.09309,6.40068 -1.60317,6.40068 1.29556,0 2.33122,-0.8006 4.23851,-3.27653 2.34857,-3.04878 2.51944,-3.17124 1.35475,-0.97097 -1.16252,2.19619 -4.5539,5.98364 -6.3542,7.09629 -1.46244,0.90384 -2.69268,0.70271 -3.53139,-0.57732 -0.72542,-1.10713 -0.36299,-2.53233 1.67459,-6.58516 1.67525,-3.33215 1.75203,-4.15297 0.38842,-4.15297 -1.63408,0 -4.41371,3.13627 -5.89726,6.65389 -0.67894,1.60984 -1.23687,3.11284 -1.23984,3.34001 -0.003,0.22717 -0.1514,0.64383 -0.32984,0.92591 -0.27806,0.43957 -0.45374,0.44365 -1.22932,0.0286 -0.6933,-0.37104 -0.90488,-0.75904 -0.90488,-1.65938 0,-1.05223 -0.10344,-1.17511 -0.98913,-1.17511 -0.67394,0 -1.37653,0.4033 -2.20486,1.26563 -1.12915,1.17549 -3.41508,2.61492 -4.15272,2.61492 -0.17559,0 -0.73754,-0.32902 -1.24877,-0.73116 z m -1.39591,-4.29592 c 2.08581,-1.97015 3.98538,-4.88909 3.99085,-6.13247 0.002,-0.45418 0.28308,-0.82576 0.70887,-0.93711 0.54044,-0.14133 0.70555,-0.48119 0.70555,-1.45226 0,-1.24879 -0.0216,-1.26774 -1.44487,-1.26774 -1.96191,0 -3.26463,0.84601 -5.14652,3.34229 -2.12494,2.81867 -2.84874,4.31501 -3.1365,6.48431 l -0.24078,1.81506 h 1.30129 c 1.08563,0 1.62625,-0.30694 3.26211,-1.85208 z m -3.41417,0.0516 c 0,-0.21416 0.56135,-1.45764 1.24745,-2.76328 1.28975,-2.45441 3.16489,-4.69319 4.81957,-5.75421 1.13497,-0.72778 1.58543,-0.27467 0.86613,0.87121 -0.27749,0.44205 -0.68311,1.36823 -0.90138,2.05819 -0.21828,0.68997 -0.95035,1.84128 -1.62682,2.55846 -0.67647,0.71719 -1.22995,1.44941 -1.22995,1.62717 0,0.37772 -2.19055,1.79184 -2.77567,1.79184 -0.21963,0 -0.39933,-0.17522 -0.39933,-0.38938 z m 4.28829,-4.62668 c 0.40016,-0.56198 0.6576,-1.09175 0.57208,-1.17727 -0.0855,-0.0855 -0.6915,0.5983 -1.34661,1.51961 -0.65511,0.92131 -0.91255,1.45109 -0.57208,1.17727 0.34047,-0.2738 0.94644,-0.95763 1.34661,-1.51961 z m 64.4983,-4.1461 c 1.46607,-2.9043 1.32538,-3.0794 -0.35105,-0.43686 -1.52319,2.40099 -1.58256,2.54347 -1.06006,2.54347 0.19124,0 0.82624,-0.94798 1.41111,-2.10661 z m -138.28381,14.6721 v -3.30951 l 1.5801,-0.39788 c 2.79096,-0.70277 2.72609,-0.23846 2.59296,-18.55926 -0.10993,-15.12742 -0.1519,-16.01774 -0.78816,-16.72047 -0.46109,-0.50928 -1.09779,-0.74226 -2.02847,-0.74226 h -1.35643 v -3.66937 -3.66936 l 3.96875,-0.21417 c 2.18281,-0.11779 6.11187,-0.25251 8.73125,-0.29938 4.58755,-0.0821 4.76635,-0.0583 4.86743,0.64903 0.10388,0.72688 0.12335,0.72522 1.94028,-0.16496 1.66403,-0.81528 2.24695,-0.90027 6.24507,-0.91064 4.34217,-0.0113 4.45027,0.008 7.05689,1.25285 1.80263,0.86093 3.32687,1.94398 4.77769,3.39481 1.91149,1.91148 2.25188,2.48257 3.31083,5.55467 1.16824,3.38918 1.17818,3.47157 0.97367,8.07047 -0.19751,4.44131 -0.96854,8.52496 -1.95904,10.37573 -0.22899,0.42786 -1.18548,1.70214 -2.12553,2.83174 -1.3066,1.57003 -2.35787,2.38247 -4.46303,3.44911 l -2.75383,1.3953 -4.61369,-0.0205 c -3.5254,-0.0157 -4.9359,-0.16128 -5.97968,-0.61736 -0.7513,-0.32827 -1.42599,-0.59686 -1.49931,-0.59686 -0.0733,0 -0.13331,1.88556 -0.13331,4.19014 0,4.64361 0.0983,4.87065 2.26158,5.2217 l 1.2662,0.20547 v 3.30523 3.30524 h -10.93611 -10.93611 z m 24.79245,-21.03353 c 1.82745,-1.43747 2.51021,-3.61972 2.66466,-8.51671 0.16016,-5.07857 -0.33965,-7.31391 -1.97835,-8.84782 -1.40505,-1.31522 -2.39847,-1.506 -4.0243,-0.77286 -2.44297,1.10163 -2.90603,2.49648 -3.0353,9.14293 -0.1235,6.34976 0.15276,7.37741 2.39455,8.90763 1.43853,0.98193 2.80295,1.0117 3.97874,0.0868 z m -199.724062,8.64981 c -6.258624,-1.4133 -10.578589,-5.02518 -12.369782,-10.34226 -0.597458,-1.77352 -0.72916,-3.04519 -0.72916,-7.04038 0,-5.73242 0.477043,-7.96774 2.328287,-10.90979 2.473763,-3.93137 4.600377,-5.52656 8.86648,-6.65079 2.71096,-0.71441 10.265283,-1.04016 13.103179,-0.56503 4.929371,0.8253 9.35705,4.00114 11.264092,8.0794 0.860651,1.84053 0.957348,2.47794 1.069598,7.05055 l 0.123409,5.02708 H -21.23668 -32.421517 l 0.238305,1.32292 c 0.518657,2.87922 1.109384,4.19388 2.518646,5.60524 1.714938,1.71749 3.398813,2.14779 5.920317,1.51286 1.862508,-0.46898 3.151374,-1.83212 3.561486,-3.76671 l 0.243049,-1.14653 h 4.381694 4.381691 v 5.12401 5.12401 l -0.96925,0.36851 c -2.979621,1.13285 -5.492111,1.45728 -12.259917,1.58311 -5.262396,0.0978 -7.6266,0.002 -9.302446,-0.3762 z m 9.328425,-23.87305 c -0.132719,-1.00048 -0.478272,-2.2773 -0.767899,-2.83738 -0.882784,-1.70712 -3.593824,-2.2615 -5.098979,-1.0427 -0.845672,0.68478 -1.729412,3.08875 -1.738468,4.72899 l -0.0054,0.97014 h 3.926004 3.926004 z m 70.00041,24.03492 c -5.946526,-0.70685 -9.732646,-2.7171 -12.388978,-6.57795 -2.403623,-3.49354 -3.335119,-9.44224 -2.43913,-15.57672 0.571433,-3.9124 1.698815,-6.29245 4.192023,-8.8499 2.347065,-2.40754 3.425211,-3.01443 6.962225,-3.91905 7.472426,-1.91112 16.087245,-0.87383 20.40443,2.45685 3.802521,2.93362 4.783205,5.3525 5.049944,12.45576 l 0.182149,4.8507 H 56.425837 45.268115 v 0.83759 c 0,2.51844 2.07325,5.79245 4.37304,6.90576 3.286175,1.59081 6.198207,0.52601 7.445015,-2.72231 l 0.705556,-1.8382 4.321528,-0.004 4.321527,-0.004 v 5.12635 c 0,3.79868 -0.114208,5.15899 -0.440972,5.25238 -4.666047,1.33357 -7.196031,1.70711 -12.259028,1.80998 -3.00743,0.0611 -6.65868,-0.0304 -8.113888,-0.2034 z m 8.113888,-23.3314 c 0,-1.51655 -1.511592,-3.99289 -2.720544,-4.45687 -2.341302,-0.89858 -2.539524,-0.87975 -3.778215,0.35894 -1.099735,1.09973 -1.961215,3.11376 -1.965939,4.5961 -0.0018,0.55378 0.434055,0.61736 4.231365,0.61736 h 4.233333 z m 54.784589,22.95063 c -2.45818,-0.94502 -4.83276,-3.55642 -5.33818,-5.87057 -0.20144,-0.92236 -0.46567,-5.88259 -0.58716,-11.02271 -0.24076,-10.18626 -0.26931,-10.31826 -2.32916,-10.77068 l -1.021756,-0.22442 v -3.32336 -3.32336 h 8.819446 8.81944 l 0.002,11.2007 c 0.001,6.5881 0.15144,11.73888 0.36493,12.50756 0.70669,2.5445 3.2472,3.49025 5.35119,1.99208 1.80647,-1.28643 2.04287,-2.39895 2.04287,-9.61465 0,-3.58312 -0.15556,-6.92392 -0.34569,-7.424 -0.34732,-0.91351 -1.11847,-1.37999 -2.9175,-1.76483 l -0.97014,-0.20752 v -3.34467 -3.34467 h 8.99583 8.99584 l 0.005,12.7882 c 0.004,9.55781 0.11724,13.01098 0.44871,13.67014 0.28066,0.55812 0.99117,1.05615 1.93508,1.35639 l 1.49157,0.47445 v 3.31791 3.31791 h -8.46667 -8.46667 v -1.0809 -1.08091 l -1.32291,0.71342 c -3.0146,1.6257 -3.89005,1.8018 -8.86253,1.78279 -3.9307,-0.015 -5.14254,-0.14714 -6.64386,-0.7243 z m -178.962361,-3.25514 v -3.64504 l 1.67569,-0.32371 c 2.969237,-0.57359 2.909232,-0.18317 2.909869,-18.93273 5.22e-4,-15.39094 -0.02933,-16.13959 -0.643514,-16.13959 -0.777919,0 -1.999858,1.24088 -2.486199,2.52474 -0.195271,0.51548 -0.464475,1.90455 -0.598233,3.08681 l -0.243196,2.14956 h -4.716937 -4.71693 v -7.76111 -7.76111 h 20.81389 20.813889 v 7.76111 7.76111 h -4.542014 -4.542014 l -0.220486,-1.10243 c -0.121267,-0.60633 -0.220486,-1.62788 -0.220486,-2.27009 0,-2.10322 -1.377823,-4.38859 -2.645833,-4.38859 -0.462845,0 -0.529167,2.07218 -0.529167,16.53298 0,16.00972 0.02237,16.56143 0.706956,17.43173 0.450197,0.57234 1.218939,0.98525 2.116667,1.13692 l 1.40971,0.23817 v 3.67316 3.67315 h -12.170833 -12.170829 z m 60.324995,0.28484 v -3.36021 l 1.0403002,-0.20806 c 0.572166,-0.11444 1.326229,-0.52388 1.675694,-0.90988 0.5896398,-0.65128 0.6424748,-1.87877 0.7337038,-17.04607 l 0.0983,-16.34425 -0.782186,-0.72872 c -0.4302058,-0.40079 -1.0641718,-0.72872 -1.4088148,-0.72872 -1.069587,0 -1.4660312,-1.31605 -1.2513842,-4.15416 0.1088572,-1.43933 0.2661782,-2.68523 0.3496032,-2.76865 0.192398,-0.1924 6.4711294,-0.7179 12.3894064,-1.03694 l 4.554351,-0.24551 -0.208104,20.80689 c -0.198413,19.83779 -0.177666,20.85694 0.445428,21.88154 1.164297,1.91453 4.0231804,2.30819 5.9721634,0.82235 l 0.854305,-0.65129 0.314297,-14.59309 c 0.172864,-8.02619 0.25498,-15.49995 0.182477,-16.60834 -0.153645,-2.34885 -0.854078,-3.33278 -2.606589,-3.66155 l -1.186289,-0.22255 v -3.45238 -3.45237 l 4.850694,-0.2178 c 2.667882,-0.11978 6.657198,-0.31174 8.865146,-0.42657 l 4.014452,-0.20878 -0.205937,1.53696 c -0.113267,0.84533 -0.252896,10.37439 -0.310286,21.17568 l -0.104348,19.63873 0.818458,0.87142 c 0.450155,0.47929 1.283593,0.96446 1.852084,1.07816 l 1.033624,0.20672 v 3.18382 3.18382 H 10.872282 -10.117996 Z m 78.316666,0.0481 v -3.31213 l 1.2544,-0.23533 c 0.689917,-0.12943 1.563042,-0.54397 1.940278,-0.92121 0.64165,-0.64165 0.685878,-1.23815 0.685878,-9.25043 0,-9.70845 -0.06166,-9.96495 -2.488682,-10.35305 l -1.391874,-0.22257 v -3.44154 c 0,-3.23887 0.04526,-3.45339 0.768534,-3.64253 1.275722,-0.3336 14.98922,-1.06012 15.598369,-0.82637 0.330235,0.12672 0.568438,0.62652 0.571246,1.19857 0.0028,0.53967 0.09922,1.33336 0.214609,1.76377 l 0.209786,0.78255 1.127735,-0.86016 c 2.046574,-1.561 4.396359,-2.36778 7.45138,-2.55838 2.615935,-0.1632 2.964444,-0.10852 3.644868,0.5719 0.719102,0.71911 0.752362,1.07254 0.752362,7.99517 v 7.2428 l -4.321528,-0.0991 -4.321528,-0.0991 -0.102453,-1.05834 c -0.14768,-1.52552 -0.812444,-3.04642 -1.265538,-2.89539 -0.214185,0.0714 -0.708384,0.67269 -1.098218,1.33621 -0.615241,1.04718 -0.724503,1.96691 -0.827835,6.9685 -0.06548,3.16915 -0.02349,6.14282 0.0933,6.60816 0.23997,0.95611 1.835753,1.91725 3.183223,1.91725 h 0.899464 v 3.35138 3.35139 H 79.487559 68.19867 Z"
       id="path39"
       inkscape:connector-curvature="0"
       inkscape:export-xdpi="96"
       inkscape:export-ydpi="96" />
    <path
       style="fill:#000000;stroke-width:0.35277778"
       d=""
       id="path27"
       inkscape:connector-curvature="0" />
    <path
       style="fill:#000000;stroke-width:0.35277778"
       d=""
       id="path25"
       inkscape:connector-curvature="0" />
    <path
       style="fill:#000000;stroke-width:0.35277778"
       d=""
       id="path23"
       inkscape:connector-curvature="0" />
    <path
       style="fill:#000000;stroke-width:0.35277778"
       d=""
       id="path21"
       inkscape:connector-curvature="0" />
  </g>
</svg>
