<?xml version="1.0" encoding="UTF-8" standalone="no"?>
<!-- Created with Inkscape (http://www.inkscape.org/) -->

<svg
   xmlns:dc="http://purl.org/dc/elements/1.1/"
   xmlns:cc="http://creativecommons.org/ns#"
   xmlns:rdf="http://www.w3.org/1999/02/22-rdf-syntax-ns#"
   xmlns:svg="http://www.w3.org/2000/svg"
   xmlns="http://www.w3.org/2000/svg"
   xmlns:sodipodi="http://sodipodi.sourceforge.net/DTD/sodipodi-0.dtd"
   xmlns:inkscape="http://www.inkscape.org/namespaces/inkscape"
   width="900"
   height="225"
   viewBox="0 0 238.12488 59.531231"
   version="1.1"
   id="svg8"
   inkscape:version="0.92.3 (2405546, 2018-03-11)"
   sodipodi:docname="traefbannertest.svg">
  <defs
     id="defs2" />
  <sodipodi:namedview
     id="base"
     pagecolor="#000000"
     bordercolor="#666666"
     borderopacity="1.0"
     inkscape:pageopacity="0"
     inkscape:pageshadow="2"
     inkscape:zoom="0.35"
     inkscape:cx="70.598984"
     inkscape:cy="311.30156"
     inkscape:document-units="mm"
     inkscape:current-layer="layer1"
     showgrid="false"
     inkscape:window-width="1853"
     inkscape:window-height="1025"
     inkscape:window-x="67"
     inkscape:window-y="27"
     inkscape:window-maximized="1"
     fit-margin-top="0"
     fit-margin-left="0"
     fit-margin-right="0"
     fit-margin-bottom="0"
     units="px"
     inkscape:snap-text-baseline="true" />
  <metadata
     id="metadata5">
    <rdf:RDF>
      <cc:Work
         rdf:about="">
        <dc:format>image/svg+xml</dc:format>
        <dc:type
           rdf:resource="http://purl.org/dc/dcmitype/StillImage" />
        <dc:title></dc:title>
      </cc:Work>
    </rdf:RDF>
  </metadata>
  <g
     inkscape:label="Layer 1"
     inkscape:groupmode="layer"
     id="layer1"
     transform="translate(39.090017,-20.476951)">
    <path
       style="fill:#000000;stroke-width:0.35277778"
       d=""
       id="path27"
       inkscape:connector-curvature="0" />
    <path
       style="fill:#000000;stroke-width:0.35277778"
       d=""
       id="path25"
       inkscape:connector-curvature="0" />
    <path
       style="fill:#000000;stroke-width:0.35277778"
       d=""
       id="path23"
       inkscape:connector-curvature="0" />
    <path
       style="fill:#000000;stroke-width:0.35277778"
       d=""
       id="path21"
       inkscape:connector-curvature="0" />
    <g
       aria-label="TRÆF XXX"
       transform="matrix(0.19802323,0,0,0.24572224,-46.623217,17.248959)"
       style="font-style:normal;font-variant:normal;font-weight:bold;font-stretch:normal;font-size:40px;line-height:1.25;font-family:'Latin Modern Roman';-inkscape-font-specification:'Latin Modern Roman, Bold';font-variant-ligatures:normal;font-variant-caps:normal;font-variant-numeric:normal;font-feature-settings:normal;text-align:start;letter-spacing:0px;word-spacing:0px;writing-mode:lr-tb;text-anchor:start;fill:#000000;fill-opacity:1;stroke:none"
       id="flowRoot31">
      <path
         d="m 194.27573,58.336 q 8.256,0 14.784,3.072 6.528,3.072 6.528,7.296 0,3.264 -2.688,5.568 -2.688,2.112 -6.912,2.88 -4.224,0.768 -6.72,0.96 -2.304,0.192 -4.416,0.192 -12.48,0 -28.032,3.264 l -13.056,2.88 2.496,13.248 q 2.304,14.4 5.376,55.488 3.072,41.088 3.648,45.312 0.576,3.456 0.576,6.72 0,9.216 -7.872,9.216 -3.648,0 -5.952,-2.496 -2.112,-2.496 -4.032,-9.984 -1.728,-7.488 -2.88,-18.432 -0.96,-11.136 -2.304,-30.912 -1.344,-19.584 -3.264,-34.752 -1.728,-15.168 -3.456,-22.272 -1.536,-7.104 -2.88,-8.064 -1.152,-0.768 -3.456,-0.768 -1.536,0 -13.632,1.92 -12.096,1.92 -19.199996,1.92 -4.416,0 -12.672,1.536 -8.256,1.344 -11.52,1.344 -5.376,0 -9.024,-2.304 -3.648,-2.496 -3.648,-6.144 0,-4.416 5.568,-6.336 4.608,-1.536 38.975996,-6.528 30.72,-4.416 60.864,-9.792 23.616,-4.032 28.8,-4.032 z"
         style="font-style:normal;font-variant:normal;font-weight:bold;font-stretch:normal;font-size:192px;font-family:Purisa;-inkscape-font-specification:'Purisa, Bold';font-variant-ligatures:normal;font-variant-caps:normal;font-variant-numeric:normal;font-feature-settings:normal;text-align:start;writing-mode:lr-tb;text-anchor:start;fill:#ff0000"
         id="path73"
         inkscape:connector-curvature="0" />
      <path
         d="m 232.24673,83.68 q 0.384,-4.992 9.408,-15.168 9.216,-10.176 12.672,-10.176 8.256,0 34.944,3.264 26.88,3.072 32.064,4.608 14.592,4.416 14.592,19.2 0,8.832 -4.608,17.28 -4.608,8.448 -10.176,14.592 -5.568,6.144 -5.952,6.912 0,1.152 -2.88,3.456 -2.88,2.304 -7.104,4.992 -4.032,2.496 -9.216,5.376 -4.992,2.688 -9.216,4.8 -4.032,2.112 -7.296,3.84 -3.072,1.536 -3.264,1.536 31.68,9.792 40.896,15.552 7.872,4.992 9.6,5.76 4.416,0.768 10.752,7.488 6.528,6.72 6.528,10.368 0,7.296 -5.952,7.296 -3.648,0 -11.136,-3.648 -7.488,-3.648 -19.968,-9.984 -12.288,-6.336 -23.808,-10.56 l -12.48,-4.608 0.576,18.816 q 0.384,8.256 0.384,13.632 0,3.648 -0.384,5.76 -0.384,2.112 -2.304,4.032 -1.92,2.112 -5.568,2.112 -5.568,0 -7.68,-6.72 -2.112,-6.72 -2.112,-19.2 0,-23.232 -6.336,-25.92 -7.296,-3.264 -7.296,-9.216 0,-5.568 7.104,-9.024 l 4.608,-2.112 -1.344,-20.16 q -1.728,-24.768 -3.456,-28.416 -2.88,2.304 -6.336,2.304 -3.456,0 -5.952,-2.304 -2.304,-2.304 -2.304,-5.76 z m 87.36,4.032 q -4.032,-1.92 -17.088,-4.608 -12.864,-2.88 -24.384,-2.88 h -11.904 l 1.152,7.488 q 1.92,14.208 4.032,44.928 5.76,-1.92 15.36,-6.912 9.792,-4.992 14.592,-8.832 4.992,-4.032 11.328,-14.4 6.336,-10.56 6.912,-14.784 z"
         style="font-style:normal;font-variant:normal;font-weight:bold;font-stretch:normal;font-size:192px;font-family:Purisa;-inkscape-font-specification:'Purisa, Bold';font-variant-ligatures:normal;font-variant-caps:normal;font-variant-numeric:normal;font-feature-settings:normal;text-align:start;writing-mode:lr-tb;text-anchor:start;fill:#ff0000"
         id="path75"
         inkscape:connector-curvature="0" />
      <path
         d="m 429.52673,135.712 q 2.688,0 3.264,-1.152 0.576,-1.344 0.576,-6.528 0,-23.808 -0.96,-34.752 -9.6,15.168 -20.544,38.016 l -1.152,2.496 8.256,0.96 q 8.064,0.96 10.56,0.96 z m 62.4,32.064 q 2.304,0 4.224,2.88 2.112,2.88 2.112,6.144 0,3.072 -2.304,5.76 -2.304,2.688 -7.296,5.376 -4.992,2.496 -9.6,4.416 -4.416,1.728 -12.672,4.8 -8.064,3.072 -12.864,4.992 -3.648,1.344 -6.336,1.344 -3.072,0 -5.184,-0.576 -1.92,-0.768 -3.264,-2.496 -1.344,-1.92 -2.112,-3.84 -0.576,-1.92 -0.96,-5.76 -0.384,-3.84 -0.384,-6.912 0,-3.264 -0.192,-9.024 -0.192,-5.952 -0.384,-10.56 l -0.576,-12.864 -4.8,-0.192 q -9.408,-0.384 -18.048,-1.536 l -5.952,-0.192 -0.96,5.952 q -3.072,6.72 -6.912,14.976 -3.648,8.064 -5.952,12.864 -2.112,4.8 -3.264,8.448 -1.92,5.568 -6.336,7.872 -4.224,2.112 -7.872,2.112 -2.496,0 -4.608,-1.728 -1.92,-1.92 -1.92,-5.184 0,-3.264 2.688,-9.024 2.88,-5.952 2.88,-7.872 0,-4.608 2.88,-6.336 0.768,-0.96 3.072,-9.6 2.304,-8.64 4.608,-12.096 0.576,-0.96 1.152,-2.688 0.768,-1.92 1.536,-4.8 0.96,-2.88 3.84,-9.984 3.072,-7.104 7.68,-16.512 5.568,-11.328 19.2,-30.912 13.632,-19.584 16.896,-21.312 1.536,-0.96 3.456,-0.96 2.496,0.576 3.264,1.344 4.224,-0.96 7.872,-3.264 3.84,-2.496 9.408,-4.224 5.568,-1.728 16.128,-1.728 8.064,0 11.52,2.496 3.456,2.496 3.456,5.376 0,3.264 -4.416,6.528 -4.224,3.264 -9.6,4.416 -5.568,1.344 -10.56,1.536 -4.992,0 -7.104,0.384 -1.92,0.192 -3.264,2.112 -3.648,5.184 -3.648,12.672 0,16.704 3.264,34.176 0.576,-0.192 5.184,-1.92 4.608,-1.92 7.68,-2.88 3.072,-1.152 7.296,-2.304 4.416,-1.152 7.296,-1.152 2.88,0 4.608,1.92 1.92,1.92 1.92,4.992 0,4.416 -4.992,7.488 -4.992,2.88 -19.584,7.872 -5.184,1.728 -7.68,3.264 -2.304,1.536 -2.88,2.496 -0.384,0.96 -0.384,2.88 0,3.072 0.192,9.6 0.384,6.528 0.384,11.328 l 0.384,14.016 5.76,-1.536 q 8.448,-0.192 15.36,-3.264 7.104,-3.264 11.328,-6.336 4.224,-3.264 6.336,-3.264 z"
         style="font-style:normal;font-variant:normal;font-weight:bold;font-stretch:normal;font-size:192px;font-family:Purisa;-inkscape-font-specification:'Purisa, Bold';font-variant-ligatures:normal;font-variant-caps:normal;font-variant-numeric:normal;font-feature-settings:normal;text-align:start;writing-mode:lr-tb;text-anchor:start;fill:#ff0000"
         id="path77"
         inkscape:connector-curvature="0" />
      <path
         d="m 557.70473,187.936 q 0,9.6 -1.536,12.672 -1.344,3.072 -6.336,3.072 -7.488,0 -9.6,-3.84 -1.152,-3.264 -1.152,-12.672 0,-8.832 -3.456,-34.176 -3.264,-25.344 -3.264,-51.84 V 69.28 l 15.936,-5.568 q 15.936,-4.992 25.728,-4.992 6.336,0 12.864,-2.304 6.528,-2.304 17.664,-2.304 17.088,0 17.088,6.144 0,2.112 -0.384,3.648 -0.192,1.344 -1.344,2.496 -0.96,1.152 -2.304,2.112 -1.152,0.768 -3.648,1.536 -2.496,0.768 -4.992,1.344 -2.496,0.576 -6.912,1.344 -4.224,0.768 -8.448,1.536 -4.032,0.576 -10.56,1.92 -6.528,1.152 -12.672,2.304 l -19.2,3.648 v 10.944 q 0,15.744 1.344,23.232 l 1.152,6.144 10.944,-1.152 q 12.864,-1.536 25.536,-1.536 17.664,0 17.664,5.376 0,3.072 -5.184,5.952 -4.992,2.688 -12.48,4.608 -7.296,1.728 -11.904,2.688 -4.608,0.96 -7.104,1.344 l -15.744,2.496 1.728,28.224 q 0.576,14.4 0.576,17.472 z"
         style="font-style:normal;font-variant:normal;font-weight:bold;font-stretch:normal;font-size:192px;font-family:Purisa;-inkscape-font-specification:'Purisa, Bold';font-variant-ligatures:normal;font-variant-caps:normal;font-variant-numeric:normal;font-feature-settings:normal;text-align:start;writing-mode:lr-tb;text-anchor:start;fill:#ff0000"
         id="path79"
         inkscape:connector-curvature="0" />
      <path
         d="m 798.43073,211.36 q -3.072,0 -5.952,-1.344 -2.688,-1.152 -2.688,-3.072 0.192,-6.528 18.048,-36.672 17.856,-30.144 18.432,-33.792 v -0.192 q -0.192,-4.608 -14.592,-19.392 -14.4,-14.784 -29.376,-30.144 -14.784,-15.552 -15.936,-21.12 0,-0.192 -0.192,-0.96 0,-0.768 0,-0.96 0,-1.344 1.728,-2.688 1.728,-1.344 4.608,-1.344 4.032,0 10.752,5.376 6.912,5.184 21.12,17.856 1.152,1.152 1.92,1.728 0.768,0.576 1.728,1.728 1.152,0.96 2.112,1.728 l 29.76,25.152 7.296,-9.792 q 9.216,-12.48 20.736,-24.384 11.712,-11.904 16.704,-11.904 7.488,0 7.488,4.032 0,3.84 -3.264,9.408 -3.072,5.568 -6.336,9.216 l -3.264,3.648 q -6.912,6.528 -14.976,22.464 l -8.832,17.472 7.68,7.872 q 5.76,5.76 18.24,16.896 12.672,11.136 18.816,18.048 6.336,6.912 6.336,11.904 0,3.456 -4.032,5.376 -3.84,1.728 -6.528,1.728 -0.96,0 -1.92,-0.192 -0.96,-0.192 -2.112,-0.768 -1.152,-0.576 -2.304,-1.152 -0.96,-0.768 -2.496,-1.92 -1.536,-1.344 -2.88,-2.304 -1.344,-1.152 -3.648,-3.072 -2.112,-2.112 -3.84,-3.648 -1.728,-1.728 -4.8,-4.416 -3.072,-2.88 -5.568,-5.184 l -22.08,-19.968 -4.608,5.76 q -4.992,7.68 -9.792,16.128 -4.608,8.256 -7.104,12.672 -2.496,4.416 -4.032,5.76 -0.192,0.192 -3.84,5.952 -3.456,5.76 -7.488,9.024 -4.032,3.456 -9.024,3.456 z"
         style="font-style:normal;font-variant:normal;font-weight:bold;font-stretch:normal;font-size:192px;font-family:Purisa;-inkscape-font-specification:'Purisa, Bold';font-variant-ligatures:normal;font-variant-caps:normal;font-variant-numeric:normal;font-feature-settings:normal;text-align:start;writing-mode:lr-tb;text-anchor:start;fill:#ff0000"
         id="path81"
         inkscape:connector-curvature="0" />
      <path
         d="m 954.43073,211.36 q -3.072,0 -5.952,-1.344 -2.688,-1.152 -2.688,-3.072 0.192,-6.528 18.048,-36.672 17.856,-30.144 18.432,-33.792 v -0.192 q -0.192,-4.608 -14.592,-19.392 -14.4,-14.784 -29.376,-30.144 -14.784,-15.552 -15.936,-21.12 0,-0.192 -0.192,-0.96 0,-0.768 0,-0.96 0,-1.344 1.728,-2.688 1.728,-1.344 4.608,-1.344 4.032,0 10.752,5.376 6.912,5.184 21.12,17.856 1.152,1.152 1.92,1.728 0.768,0.576 1.728,1.728 1.152,0.96 2.112,1.728 l 29.76,25.152 7.29597,-9.792 q 9.216,-12.48 20.736,-24.384 11.712,-11.904 16.704,-11.904 7.488,0 7.488,4.032 0,3.84 -3.264,9.408 -3.072,5.568 -6.336,9.216 l -3.264,3.648 q -6.912,6.528 -14.976,22.464 l -8.832,17.472 7.68,7.872 q 5.76,5.76 18.24,16.896 12.672,11.136 18.816,18.048 6.336,6.912 6.336,11.904 0,3.456 -4.032,5.376 -3.84,1.728 -6.528,1.728 -0.96,0 -1.92,-0.192 -0.96,-0.192 -2.112,-0.768 -1.152,-0.576 -2.304,-1.152 -0.96,-0.768 -2.496,-1.92 -1.536,-1.344 -2.88,-2.304 -1.344,-1.152 -3.648,-3.072 -2.112,-2.112 -3.84,-3.648 -1.728,-1.728 -4.8,-4.416 -3.072,-2.88 -5.568,-5.184 l -22.08,-19.968 -4.60797,5.76 q -4.992,7.68 -9.792,16.128 -4.608,8.256 -7.104,12.672 -2.496,4.416 -4.032,5.76 -0.192,0.192 -3.84,5.952 -3.456,5.76 -7.488,9.024 -4.032,3.456 -9.024,3.456 z"
         style="font-style:normal;font-variant:normal;font-weight:bold;font-stretch:normal;font-size:192px;font-family:Purisa;-inkscape-font-specification:'Purisa, Bold';font-variant-ligatures:normal;font-variant-caps:normal;font-variant-numeric:normal;font-feature-settings:normal;text-align:start;writing-mode:lr-tb;text-anchor:start;fill:#ff0000"
         id="path83"
         inkscape:connector-curvature="0" />
      <path
         d="m 1110.4307,211.36 q -3.072,0 -5.952,-1.344 -2.688,-1.152 -2.688,-3.072 0.192,-6.528 18.048,-36.672 17.856,-30.144 18.432,-33.792 v -0.192 q -0.192,-4.608 -14.592,-19.392 -14.4,-14.784 -29.376,-30.144 -14.784,-15.552 -15.936,-21.12 0,-0.192 -0.192,-0.96 0,-0.768 0,-0.96 0,-1.344 1.728,-2.688 1.728,-1.344 4.608,-1.344 4.032,0 10.752,5.376 6.912,5.184 21.12,17.856 1.152,1.152 1.92,1.728 0.768,0.576 1.728,1.728 1.152,0.96 2.112,1.728 l 29.76,25.152 7.296,-9.792 q 9.216,-12.48 20.736,-24.384 11.712,-11.904 16.704,-11.904 7.488,0 7.488,4.032 0,3.84 -3.264,9.408 -3.072,5.568 -6.336,9.216 l -3.264,3.648 q -6.912,6.528 -14.976,22.464 l -8.832,17.472 7.68,7.872 q 5.76,5.76 18.24,16.896 12.672,11.136 18.816,18.048 6.336,6.912 6.336,11.904 0,3.456 -4.032,5.376 -3.84,1.728 -6.528,1.728 -0.96,0 -1.92,-0.192 -0.96,-0.192 -2.112,-0.768 -1.152,-0.576 -2.304,-1.152 -0.96,-0.768 -2.496,-1.92 -1.536,-1.344 -2.88,-2.304 -1.344,-1.152 -3.648,-3.072 -2.112,-2.112 -3.84,-3.648 -1.728,-1.728 -4.8,-4.416 -3.072,-2.88 -5.568,-5.184 l -22.08,-19.968 -4.608,5.76 q -4.992,7.68 -9.792,16.128 -4.608,8.256 -7.104,12.672 -2.496,4.416 -4.032,5.76 -0.192,0.192 -3.84,5.952 -3.456,5.76 -7.488,9.024 -4.032,3.456 -9.024,3.456 z"
         style="font-style:normal;font-variant:normal;font-weight:bold;font-stretch:normal;font-size:192px;font-family:Purisa;-inkscape-font-specification:'Purisa, Bold';font-variant-ligatures:normal;font-variant-caps:normal;font-variant-numeric:normal;font-feature-settings:normal;text-align:start;writing-mode:lr-tb;text-anchor:start;fill:#ff0000"
         id="path85"
         inkscape:connector-curvature="0" />
    </g>
  </g>
</svg>
